<svg width="23" height="24" viewBox="0 0 23 24" fill="none" xmlns="http://www.w3.org/2000/svg">
<path d="M21.7091 7.5H0.597499C0.26753 7.5 0 7.24814 0 6.9375V5.25C0 4.00734 1.07002 3 2.39 3H4.77999V0.5625C4.77999 0.251859 5.04752 0 5.37749 0H7.36915C7.69912 0 7.96665 0.251859 7.96665 0.5625V3H14.34V0.5625C14.34 0.251859 14.6075 0 14.9375 0H16.9291C17.2591 0 17.5266 0.251859 17.5266 0.5625V3H19.9166C21.2366 3 22.3066 4.00734 22.3066 5.25V6.9375C22.3066 7.24814 22.0391 7.5 21.7091 7.5ZM0.597499 9H21.7091C22.0391 9 22.3066 9.25186 22.3066 9.5625V21.75C22.3066 22.9927 21.2366 24 19.9166 24H2.39C1.07002 24 0 22.9927 0 21.75V9.5625C0 9.25186 0.26753 9 0.597499 9ZM17.1928 13.4975L15.7902 12.1664C15.5579 11.9458 15.1796 11.9444 14.9453 12.1632L9.66554 17.0937L7.37612 14.9209C7.14374 14.7004 6.76538 14.6989 6.53111 14.9177L5.11718 16.2382C4.88291 16.457 4.88137 16.8131 5.11379 17.0337L9.22663 20.9369C9.459 21.1575 9.83732 21.1589 10.0716 20.9401L17.1894 14.293C17.4237 14.0742 17.4253 13.7181 17.1928 13.4975Z" fill="#D0FFF7"/>
</svg>
